<mxfile host="app.diagrams.net" modified="2022-09-20T11:21:30.290Z" agent="5.0 (Windows NT 10.0; Win64; x64) AppleWebKit/537.36 (KHTML, like Gecko) Chrome/105.0.0.0 Safari/537.36" etag="8CouO-Qph1T3C5gRUhek" version="20.3.2" type="github">
  <diagram id="YcZk6YGl-E7LYOuZUrIg" name="PÃ¡gina-1">
    <mxGraphModel dx="2048" dy="692" grid="1" gridSize="10" guides="1" tooltips="1" connect="1" arrows="1" fold="1" page="1" pageScale="1" pageWidth="827" pageHeight="1169" math="0" shadow="0">
      <root>
        <mxCell id="0" />
        <mxCell id="1" parent="0" />
        <mxCell id="uDeZrSG333JNhY7ju4cX-45" value="INIT" style="rounded=1;whiteSpace=wrap;html=1;" parent="1" vertex="1">
          <mxGeometry x="60" y="40" width="120" height="60" as="geometry" />
        </mxCell>
        <mxCell id="uDeZrSG333JNhY7ju4cX-46" value="" style="endArrow=classic;html=1;rounded=0;exitX=0.5;exitY=1;exitDx=0;exitDy=0;" parent="1" source="uDeZrSG333JNhY7ju4cX-45" edge="1">
          <mxGeometry width="50" height="50" relative="1" as="geometry">
            <mxPoint x="109" y="180" as="sourcePoint" />
            <mxPoint x="120" y="150" as="targetPoint" />
          </mxGeometry>
        </mxCell>
        <mxCell id="uDeZrSG333JNhY7ju4cX-47" value="" style="rhombus;whiteSpace=wrap;html=1;" parent="1" vertex="1">
          <mxGeometry x="470" y="30" width="180" height="40" as="geometry" />
        </mxCell>
        <mxCell id="uDeZrSG333JNhY7ju4cX-48" value="" style="endArrow=none;html=1;rounded=0;entryX=1;entryY=0.5;entryDx=0;entryDy=0;" parent="1" target="uDeZrSG333JNhY7ju4cX-47" edge="1">
          <mxGeometry width="50" height="50" relative="1" as="geometry">
            <mxPoint x="730" y="50" as="sourcePoint" />
            <mxPoint x="630" y="10" as="targetPoint" />
          </mxGeometry>
        </mxCell>
        <mxCell id="uDeZrSG333JNhY7ju4cX-49" value="" style="endArrow=none;html=1;rounded=0;entryX=1;entryY=0.5;entryDx=0;entryDy=0;" parent="1" edge="1">
          <mxGeometry width="50" height="50" relative="1" as="geometry">
            <mxPoint x="470" y="49.5" as="sourcePoint" />
            <mxPoint x="390" y="49.5" as="targetPoint" />
          </mxGeometry>
        </mxCell>
        <mxCell id="uDeZrSG333JNhY7ju4cX-50" value="" style="endArrow=classic;html=1;rounded=0;" parent="1" edge="1">
          <mxGeometry width="50" height="50" relative="1" as="geometry">
            <mxPoint x="730" y="50" as="sourcePoint" />
            <mxPoint x="730" y="110" as="targetPoint" />
          </mxGeometry>
        </mxCell>
        <mxCell id="uDeZrSG333JNhY7ju4cX-51" value="" style="rounded=0;whiteSpace=wrap;html=1;" parent="1" vertex="1">
          <mxGeometry x="690" y="110" width="80" height="30" as="geometry" />
        </mxCell>
        <mxCell id="uDeZrSG333JNhY7ju4cX-52" value="" style="endArrow=none;html=1;rounded=0;entryX=0.5;entryY=1;entryDx=0;entryDy=0;" parent="1" target="uDeZrSG333JNhY7ju4cX-51" edge="1">
          <mxGeometry width="50" height="50" relative="1" as="geometry">
            <mxPoint x="390" y="210" as="sourcePoint" />
            <mxPoint x="630" y="10" as="targetPoint" />
            <Array as="points">
              <mxPoint x="730" y="210" />
            </Array>
          </mxGeometry>
        </mxCell>
        <mxCell id="uDeZrSG333JNhY7ju4cX-53" value="" style="endArrow=none;html=1;rounded=0;" parent="1" edge="1">
          <mxGeometry width="50" height="50" relative="1" as="geometry">
            <mxPoint x="390" y="210" as="sourcePoint" />
            <mxPoint x="390" y="50" as="targetPoint" />
          </mxGeometry>
        </mxCell>
        <mxCell id="uDeZrSG333JNhY7ju4cX-54" value="" style="endArrow=classic;html=1;rounded=0;" parent="1" edge="1">
          <mxGeometry width="50" height="50" relative="1" as="geometry">
            <mxPoint x="560" y="210" as="sourcePoint" />
            <mxPoint x="560" y="250" as="targetPoint" />
          </mxGeometry>
        </mxCell>
        <mxCell id="uDeZrSG333JNhY7ju4cX-55" value="True" style="text;html=1;strokeColor=none;fillColor=none;align=center;verticalAlign=middle;whiteSpace=wrap;rounded=0;" parent="1" vertex="1">
          <mxGeometry x="670" y="20" width="60" height="30" as="geometry" />
        </mxCell>
        <mxCell id="uDeZrSG333JNhY7ju4cX-56" value="False" style="text;html=1;strokeColor=none;fillColor=none;align=center;verticalAlign=middle;whiteSpace=wrap;rounded=0;" parent="1" vertex="1">
          <mxGeometry x="390" y="20" width="60" height="30" as="geometry" />
        </mxCell>
        <mxCell id="uDeZrSG333JNhY7ju4cX-57" value="exlogica" style="text;html=1;strokeColor=none;fillColor=none;align=center;verticalAlign=middle;whiteSpace=wrap;rounded=0;" parent="1" vertex="1">
          <mxGeometry x="530" y="30" width="60" height="30" as="geometry" />
        </mxCell>
        <mxCell id="uDeZrSG333JNhY7ju4cX-58" value="Acciones A" style="text;html=1;strokeColor=none;fillColor=none;align=center;verticalAlign=middle;whiteSpace=wrap;rounded=0;" parent="1" vertex="1">
          <mxGeometry x="700" y="110" width="60" height="30" as="geometry" />
        </mxCell>
        <mxCell id="uDeZrSG333JNhY7ju4cX-59" value="" style="rhombus;whiteSpace=wrap;html=1;" parent="1" vertex="1">
          <mxGeometry x="50" y="220" width="180" height="40" as="geometry" />
        </mxCell>
        <mxCell id="uDeZrSG333JNhY7ju4cX-60" value="" style="endArrow=none;html=1;rounded=0;entryX=1;entryY=0.5;entryDx=0;entryDy=0;" parent="1" target="uDeZrSG333JNhY7ju4cX-59" edge="1">
          <mxGeometry width="50" height="50" relative="1" as="geometry">
            <mxPoint x="310.00000000000045" y="240" as="sourcePoint" />
            <mxPoint x="210" y="200" as="targetPoint" />
          </mxGeometry>
        </mxCell>
        <mxCell id="uDeZrSG333JNhY7ju4cX-61" value="" style="endArrow=none;html=1;rounded=0;entryX=1;entryY=0.5;entryDx=0;entryDy=0;" parent="1" edge="1">
          <mxGeometry width="50" height="50" relative="1" as="geometry">
            <mxPoint x="50" y="239.49999999999977" as="sourcePoint" />
            <mxPoint x="-30" y="239.49999999999977" as="targetPoint" />
          </mxGeometry>
        </mxCell>
        <mxCell id="uDeZrSG333JNhY7ju4cX-62" value="" style="endArrow=classic;html=1;rounded=0;" parent="1" edge="1">
          <mxGeometry width="50" height="50" relative="1" as="geometry">
            <mxPoint x="310.00000000000045" y="240" as="sourcePoint" />
            <mxPoint x="310.00000000000045" y="300" as="targetPoint" />
          </mxGeometry>
        </mxCell>
        <mxCell id="uDeZrSG333JNhY7ju4cX-63" value="" style="rounded=0;whiteSpace=wrap;html=1;" parent="1" vertex="1">
          <mxGeometry x="270" y="300" width="80" height="30" as="geometry" />
        </mxCell>
        <mxCell id="uDeZrSG333JNhY7ju4cX-64" value="" style="endArrow=none;html=1;rounded=0;entryX=0.5;entryY=1;entryDx=0;entryDy=0;" parent="1" target="uDeZrSG333JNhY7ju4cX-63" edge="1">
          <mxGeometry width="50" height="50" relative="1" as="geometry">
            <mxPoint x="-30" y="400" as="sourcePoint" />
            <mxPoint x="210" y="200" as="targetPoint" />
            <Array as="points">
              <mxPoint x="310" y="400" />
            </Array>
          </mxGeometry>
        </mxCell>
        <mxCell id="uDeZrSG333JNhY7ju4cX-65" value="" style="endArrow=classic;html=1;rounded=0;" parent="1" edge="1">
          <mxGeometry width="50" height="50" relative="1" as="geometry">
            <mxPoint x="140" y="400" as="sourcePoint" />
            <mxPoint x="140" y="440" as="targetPoint" />
          </mxGeometry>
        </mxCell>
        <mxCell id="uDeZrSG333JNhY7ju4cX-66" value="" style="rounded=0;whiteSpace=wrap;html=1;" parent="1" vertex="1">
          <mxGeometry x="-70" y="300" width="80" height="30" as="geometry" />
        </mxCell>
        <mxCell id="uDeZrSG333JNhY7ju4cX-67" value="" style="endArrow=none;html=1;rounded=0;entryX=0.5;entryY=1;entryDx=0;entryDy=0;" parent="1" target="uDeZrSG333JNhY7ju4cX-66" edge="1">
          <mxGeometry width="50" height="50" relative="1" as="geometry">
            <mxPoint x="-30" y="400" as="sourcePoint" />
            <mxPoint x="190" y="380" as="targetPoint" />
          </mxGeometry>
        </mxCell>
        <mxCell id="uDeZrSG333JNhY7ju4cX-68" value="" style="endArrow=classic;html=1;rounded=0;entryX=0.5;entryY=0;entryDx=0;entryDy=0;" parent="1" target="uDeZrSG333JNhY7ju4cX-66" edge="1">
          <mxGeometry width="50" height="50" relative="1" as="geometry">
            <mxPoint x="-30" y="240" as="sourcePoint" />
            <mxPoint x="190" y="380" as="targetPoint" />
          </mxGeometry>
        </mxCell>
        <mxCell id="uDeZrSG333JNhY7ju4cX-69" value="False" style="text;html=1;strokeColor=none;fillColor=none;align=center;verticalAlign=middle;whiteSpace=wrap;rounded=0;" parent="1" vertex="1">
          <mxGeometry x="-30" y="210" width="60" height="30" as="geometry" />
        </mxCell>
        <mxCell id="uDeZrSG333JNhY7ju4cX-70" value="True" style="text;html=1;strokeColor=none;fillColor=none;align=center;verticalAlign=middle;whiteSpace=wrap;rounded=0;" parent="1" vertex="1">
          <mxGeometry x="250" y="210" width="60" height="30" as="geometry" />
        </mxCell>
        <mxCell id="uDeZrSG333JNhY7ju4cX-71" value="exlogica" style="text;html=1;strokeColor=none;fillColor=none;align=center;verticalAlign=middle;whiteSpace=wrap;rounded=0;" parent="1" vertex="1">
          <mxGeometry x="110" y="225" width="60" height="30" as="geometry" />
        </mxCell>
        <mxCell id="uDeZrSG333JNhY7ju4cX-72" value="Accion B" style="text;html=1;strokeColor=none;fillColor=none;align=center;verticalAlign=middle;whiteSpace=wrap;rounded=0;" parent="1" vertex="1">
          <mxGeometry x="-60" y="300" width="60" height="30" as="geometry" />
        </mxCell>
        <mxCell id="uDeZrSG333JNhY7ju4cX-73" value="Accion A" style="text;html=1;strokeColor=none;fillColor=none;align=center;verticalAlign=middle;whiteSpace=wrap;rounded=0;" parent="1" vertex="1">
          <mxGeometry x="280" y="300" width="60" height="30" as="geometry" />
        </mxCell>
        <mxCell id="uDeZrSG333JNhY7ju4cX-74" style="edgeStyle=orthogonalEdgeStyle;rounded=0;orthogonalLoop=1;jettySize=auto;html=1;exitX=0.5;exitY=1;exitDx=0;exitDy=0;entryX=0.5;entryY=0;entryDx=0;entryDy=0;" parent="1" source="uDeZrSG333JNhY7ju4cX-75" target="uDeZrSG333JNhY7ju4cX-84" edge="1">
          <mxGeometry relative="1" as="geometry" />
        </mxCell>
        <mxCell id="uDeZrSG333JNhY7ju4cX-75" value="" style="rounded=0;whiteSpace=wrap;html=1;" parent="1" vertex="1">
          <mxGeometry x="440" y="360.0000000000001" width="90" height="30" as="geometry" />
        </mxCell>
        <mxCell id="uDeZrSG333JNhY7ju4cX-76" style="edgeStyle=orthogonalEdgeStyle;rounded=0;orthogonalLoop=1;jettySize=auto;html=1;exitX=0.5;exitY=1;exitDx=0;exitDy=0;entryX=0.5;entryY=0;entryDx=0;entryDy=0;" parent="1" source="uDeZrSG333JNhY7ju4cX-77" target="uDeZrSG333JNhY7ju4cX-85" edge="1">
          <mxGeometry relative="1" as="geometry" />
        </mxCell>
        <mxCell id="uDeZrSG333JNhY7ju4cX-77" value="" style="rounded=0;whiteSpace=wrap;html=1;" parent="1" vertex="1">
          <mxGeometry x="520" y="360.0000000000001" width="80" height="30" as="geometry" />
        </mxCell>
        <mxCell id="uDeZrSG333JNhY7ju4cX-78" style="edgeStyle=orthogonalEdgeStyle;rounded=0;orthogonalLoop=1;jettySize=auto;html=1;exitX=0.5;exitY=1;exitDx=0;exitDy=0;entryX=0.5;entryY=0;entryDx=0;entryDy=0;" parent="1" source="uDeZrSG333JNhY7ju4cX-79" target="uDeZrSG333JNhY7ju4cX-86" edge="1">
          <mxGeometry relative="1" as="geometry" />
        </mxCell>
        <mxCell id="uDeZrSG333JNhY7ju4cX-79" value="" style="rounded=0;whiteSpace=wrap;html=1;" parent="1" vertex="1">
          <mxGeometry x="680" y="360.0000000000001" width="80" height="30" as="geometry" />
        </mxCell>
        <mxCell id="uDeZrSG333JNhY7ju4cX-80" style="edgeStyle=orthogonalEdgeStyle;rounded=0;orthogonalLoop=1;jettySize=auto;html=1;exitX=0.5;exitY=1;exitDx=0;exitDy=0;entryX=0.5;entryY=0;entryDx=0;entryDy=0;" parent="1" source="uDeZrSG333JNhY7ju4cX-81" target="uDeZrSG333JNhY7ju4cX-87" edge="1">
          <mxGeometry relative="1" as="geometry" />
        </mxCell>
        <mxCell id="uDeZrSG333JNhY7ju4cX-81" value="" style="rounded=0;whiteSpace=wrap;html=1;" parent="1" vertex="1">
          <mxGeometry x="600" y="360.0000000000001" width="80" height="30" as="geometry" />
        </mxCell>
        <mxCell id="uDeZrSG333JNhY7ju4cX-82" value="" style="endArrow=none;html=1;rounded=0;exitX=0;exitY=0;exitDx=0;exitDy=0;" parent="1" source="uDeZrSG333JNhY7ju4cX-75" edge="1">
          <mxGeometry width="50" height="50" relative="1" as="geometry">
            <mxPoint x="600" y="500.0000000000001" as="sourcePoint" />
            <mxPoint x="600" y="310.0000000000001" as="targetPoint" />
            <Array as="points">
              <mxPoint x="600" y="310.0000000000001" />
              <mxPoint x="760" y="360.0000000000001" />
            </Array>
          </mxGeometry>
        </mxCell>
        <mxCell id="uDeZrSG333JNhY7ju4cX-83" value="" style="endArrow=classic;html=1;rounded=0;" parent="1" edge="1">
          <mxGeometry width="50" height="50" relative="1" as="geometry">
            <mxPoint x="600" y="280" as="sourcePoint" />
            <mxPoint x="600" y="310.0000000000001" as="targetPoint" />
          </mxGeometry>
        </mxCell>
        <mxCell id="uDeZrSG333JNhY7ju4cX-84" value="" style="rounded=0;whiteSpace=wrap;html=1;" parent="1" vertex="1">
          <mxGeometry x="440" y="420.0000000000001" width="90" height="30" as="geometry" />
        </mxCell>
        <mxCell id="uDeZrSG333JNhY7ju4cX-85" value="" style="rounded=0;whiteSpace=wrap;html=1;" parent="1" vertex="1">
          <mxGeometry x="520" y="420.0000000000001" width="80" height="30" as="geometry" />
        </mxCell>
        <mxCell id="uDeZrSG333JNhY7ju4cX-86" value="" style="rounded=0;whiteSpace=wrap;html=1;" parent="1" vertex="1">
          <mxGeometry x="680" y="420.0000000000001" width="80" height="30" as="geometry" />
        </mxCell>
        <mxCell id="uDeZrSG333JNhY7ju4cX-87" value="" style="rounded=0;whiteSpace=wrap;html=1;" parent="1" vertex="1">
          <mxGeometry x="600" y="420.0000000000001" width="80" height="30" as="geometry" />
        </mxCell>
        <mxCell id="uDeZrSG333JNhY7ju4cX-88" value="" style="endArrow=none;html=1;rounded=0;entryX=0.5;entryY=1;entryDx=0;entryDy=0;exitX=0.5;exitY=1;exitDx=0;exitDy=0;" parent="1" source="uDeZrSG333JNhY7ju4cX-86" target="uDeZrSG333JNhY7ju4cX-84" edge="1">
          <mxGeometry width="50" height="50" relative="1" as="geometry">
            <mxPoint x="730" y="470.0000000000001" as="sourcePoint" />
            <mxPoint x="540" y="470.0000000000001" as="targetPoint" />
            <Array as="points">
              <mxPoint x="720" y="500.0000000000001" />
              <mxPoint x="485" y="500.0000000000001" />
            </Array>
          </mxGeometry>
        </mxCell>
        <mxCell id="uDeZrSG333JNhY7ju4cX-89" value="" style="endArrow=none;html=1;rounded=0;entryX=0.5;entryY=1;entryDx=0;entryDy=0;" parent="1" target="uDeZrSG333JNhY7ju4cX-85" edge="1">
          <mxGeometry width="50" height="50" relative="1" as="geometry">
            <mxPoint x="560" y="500.0000000000001" as="sourcePoint" />
            <mxPoint x="620" y="530.0000000000001" as="targetPoint" />
          </mxGeometry>
        </mxCell>
        <mxCell id="uDeZrSG333JNhY7ju4cX-90" value="" style="endArrow=none;html=1;rounded=0;entryX=0.5;entryY=1;entryDx=0;entryDy=0;" parent="1" target="uDeZrSG333JNhY7ju4cX-87" edge="1">
          <mxGeometry width="50" height="50" relative="1" as="geometry">
            <mxPoint x="640" y="500.0000000000001" as="sourcePoint" />
            <mxPoint x="720" y="550.0000000000001" as="targetPoint" />
          </mxGeometry>
        </mxCell>
        <mxCell id="uDeZrSG333JNhY7ju4cX-91" value="" style="endArrow=classic;html=1;rounded=0;" parent="1" edge="1">
          <mxGeometry width="50" height="50" relative="1" as="geometry">
            <mxPoint x="600" y="500.0000000000001" as="sourcePoint" />
            <mxPoint x="600" y="530.0000000000001" as="targetPoint" />
          </mxGeometry>
        </mxCell>
        <mxCell id="uDeZrSG333JNhY7ju4cX-92" value="1" style="text;html=1;strokeColor=none;fillColor=none;align=center;verticalAlign=middle;whiteSpace=wrap;rounded=0;" parent="1" vertex="1">
          <mxGeometry x="455" y="360.0000000000001" width="60" height="30" as="geometry" />
        </mxCell>
        <mxCell id="uDeZrSG333JNhY7ju4cX-93" value="2" style="text;html=1;strokeColor=none;fillColor=none;align=center;verticalAlign=middle;whiteSpace=wrap;rounded=0;" parent="1" vertex="1">
          <mxGeometry x="530" y="360.0000000000001" width="60" height="30" as="geometry" />
        </mxCell>
        <mxCell id="uDeZrSG333JNhY7ju4cX-94" value="A" style="text;html=1;strokeColor=none;fillColor=none;align=center;verticalAlign=middle;whiteSpace=wrap;rounded=0;" parent="1" vertex="1">
          <mxGeometry x="450" y="420.0000000000001" width="60" height="30" as="geometry" />
        </mxCell>
        <mxCell id="uDeZrSG333JNhY7ju4cX-95" value="B" style="text;html=1;strokeColor=none;fillColor=none;align=center;verticalAlign=middle;whiteSpace=wrap;rounded=0;" parent="1" vertex="1">
          <mxGeometry x="530" y="420.0000000000001" width="60" height="30" as="geometry" />
        </mxCell>
        <mxCell id="uDeZrSG333JNhY7ju4cX-96" value="3,4" style="text;html=1;strokeColor=none;fillColor=none;align=center;verticalAlign=middle;whiteSpace=wrap;rounded=0;" parent="1" vertex="1">
          <mxGeometry x="610" y="360.0000000000001" width="60" height="30" as="geometry" />
        </mxCell>
        <mxCell id="uDeZrSG333JNhY7ju4cX-97" value="C" style="text;html=1;strokeColor=none;fillColor=none;align=center;verticalAlign=middle;whiteSpace=wrap;rounded=0;" parent="1" vertex="1">
          <mxGeometry x="610" y="420.0000000000001" width="60" height="30" as="geometry" />
        </mxCell>
        <mxCell id="uDeZrSG333JNhY7ju4cX-98" value="de otro modo" style="text;html=1;strokeColor=none;fillColor=none;align=center;verticalAlign=middle;whiteSpace=wrap;rounded=0;" parent="1" vertex="1">
          <mxGeometry x="690" y="360.0000000000001" width="60" height="30" as="geometry" />
        </mxCell>
        <mxCell id="uDeZrSG333JNhY7ju4cX-99" value="R" style="text;html=1;strokeColor=none;fillColor=none;align=center;verticalAlign=middle;whiteSpace=wrap;rounded=0;" parent="1" vertex="1">
          <mxGeometry x="690" y="420.0000000000001" width="60" height="30" as="geometry" />
        </mxCell>
        <mxCell id="uDeZrSG333JNhY7ju4cX-100" value="V" style="text;html=1;strokeColor=none;fillColor=none;align=center;verticalAlign=middle;whiteSpace=wrap;rounded=0;" parent="1" vertex="1">
          <mxGeometry x="570" y="329.0000000000001" width="60" height="30" as="geometry" />
        </mxCell>
        <mxCell id="uDeZrSG333JNhY7ju4cX-101" style="edgeStyle=orthogonalEdgeStyle;rounded=0;orthogonalLoop=1;jettySize=auto;html=1;exitX=0;exitY=0.5;exitDx=0;exitDy=0;" parent="1" source="uDeZrSG333JNhY7ju4cX-103" edge="1">
          <mxGeometry relative="1" as="geometry">
            <mxPoint x="160" y="570" as="targetPoint" />
            <Array as="points">
              <mxPoint x="10" y="670" />
              <mxPoint x="10" y="570" />
            </Array>
          </mxGeometry>
        </mxCell>
        <mxCell id="uDeZrSG333JNhY7ju4cX-102" style="edgeStyle=orthogonalEdgeStyle;rounded=0;orthogonalLoop=1;jettySize=auto;html=1;exitX=0.5;exitY=1;exitDx=0;exitDy=0;" parent="1" source="uDeZrSG333JNhY7ju4cX-103" edge="1">
          <mxGeometry relative="1" as="geometry">
            <mxPoint x="160" y="720" as="targetPoint" />
          </mxGeometry>
        </mxCell>
        <mxCell id="uDeZrSG333JNhY7ju4cX-103" value="" style="rhombus;whiteSpace=wrap;html=1;" parent="1" vertex="1">
          <mxGeometry x="70" y="650" width="180" height="40" as="geometry" />
        </mxCell>
        <mxCell id="uDeZrSG333JNhY7ju4cX-104" style="edgeStyle=orthogonalEdgeStyle;rounded=0;orthogonalLoop=1;jettySize=auto;html=1;exitX=0.5;exitY=1;exitDx=0;exitDy=0;entryX=0.5;entryY=0;entryDx=0;entryDy=0;" parent="1" source="uDeZrSG333JNhY7ju4cX-105" target="uDeZrSG333JNhY7ju4cX-103" edge="1">
          <mxGeometry relative="1" as="geometry" />
        </mxCell>
        <mxCell id="uDeZrSG333JNhY7ju4cX-105" value="" style="rounded=0;whiteSpace=wrap;html=1;" parent="1" vertex="1">
          <mxGeometry x="100" y="600" width="120" height="25" as="geometry" />
        </mxCell>
        <mxCell id="uDeZrSG333JNhY7ju4cX-106" value="" style="endArrow=classic;html=1;rounded=0;entryX=0.5;entryY=0;entryDx=0;entryDy=0;" parent="1" target="uDeZrSG333JNhY7ju4cX-105" edge="1">
          <mxGeometry width="50" height="50" relative="1" as="geometry">
            <mxPoint x="160" y="550" as="sourcePoint" />
            <mxPoint x="170" y="760" as="targetPoint" />
          </mxGeometry>
        </mxCell>
        <mxCell id="uDeZrSG333JNhY7ju4cX-107" value="&amp;lt;acciones&amp;gt;" style="text;html=1;strokeColor=none;fillColor=none;align=center;verticalAlign=middle;whiteSpace=wrap;rounded=0;" parent="1" vertex="1">
          <mxGeometry x="130" y="597.5" width="60" height="30" as="geometry" />
        </mxCell>
        <mxCell id="uDeZrSG333JNhY7ju4cX-108" value="&amp;lt;ex logica&amp;gt;" style="text;html=1;strokeColor=none;fillColor=none;align=center;verticalAlign=middle;whiteSpace=wrap;rounded=0;" parent="1" vertex="1">
          <mxGeometry x="130" y="655" width="60" height="30" as="geometry" />
        </mxCell>
        <mxCell id="uDeZrSG333JNhY7ju4cX-109" value="False" style="text;html=1;strokeColor=none;fillColor=none;align=center;verticalAlign=middle;whiteSpace=wrap;rounded=0;" parent="1" vertex="1">
          <mxGeometry x="10" y="640" width="60" height="30" as="geometry" />
        </mxCell>
        <mxCell id="uDeZrSG333JNhY7ju4cX-110" style="edgeStyle=orthogonalEdgeStyle;rounded=0;orthogonalLoop=1;jettySize=auto;html=1;exitX=1;exitY=0.5;exitDx=0;exitDy=0;" parent="1" source="uDeZrSG333JNhY7ju4cX-112" edge="1">
          <mxGeometry relative="1" as="geometry">
            <mxPoint x="610" y="765" as="targetPoint" />
            <Array as="points">
              <mxPoint x="740" y="605" />
              <mxPoint x="740" y="735" />
              <mxPoint x="610" y="735" />
            </Array>
          </mxGeometry>
        </mxCell>
        <mxCell id="uDeZrSG333JNhY7ju4cX-111" style="edgeStyle=orthogonalEdgeStyle;rounded=0;orthogonalLoop=1;jettySize=auto;html=1;exitX=0.5;exitY=1;exitDx=0;exitDy=0;entryX=0.5;entryY=0;entryDx=0;entryDy=0;" parent="1" source="uDeZrSG333JNhY7ju4cX-112" target="uDeZrSG333JNhY7ju4cX-114" edge="1">
          <mxGeometry relative="1" as="geometry" />
        </mxCell>
        <mxCell id="uDeZrSG333JNhY7ju4cX-112" value="" style="rhombus;whiteSpace=wrap;html=1;" parent="1" vertex="1">
          <mxGeometry x="520" y="585" width="180" height="40" as="geometry" />
        </mxCell>
        <mxCell id="uDeZrSG333JNhY7ju4cX-113" style="edgeStyle=orthogonalEdgeStyle;rounded=0;orthogonalLoop=1;jettySize=auto;html=1;exitX=0.5;exitY=1;exitDx=0;exitDy=0;entryX=0;entryY=0.5;entryDx=0;entryDy=0;" parent="1" source="uDeZrSG333JNhY7ju4cX-114" target="uDeZrSG333JNhY7ju4cX-112" edge="1">
          <mxGeometry relative="1" as="geometry">
            <mxPoint x="510" y="605" as="targetPoint" />
            <Array as="points">
              <mxPoint x="610" y="700" />
              <mxPoint x="470" y="700" />
              <mxPoint x="470" y="605" />
            </Array>
          </mxGeometry>
        </mxCell>
        <mxCell id="uDeZrSG333JNhY7ju4cX-114" value="" style="rounded=0;whiteSpace=wrap;html=1;" parent="1" vertex="1">
          <mxGeometry x="550" y="655" width="120" height="25" as="geometry" />
        </mxCell>
        <mxCell id="uDeZrSG333JNhY7ju4cX-115" value="&amp;lt;ex logica&amp;gt;" style="text;html=1;strokeColor=none;fillColor=none;align=center;verticalAlign=middle;whiteSpace=wrap;rounded=0;" parent="1" vertex="1">
          <mxGeometry x="580" y="590" width="60" height="30" as="geometry" />
        </mxCell>
        <mxCell id="uDeZrSG333JNhY7ju4cX-116" value="False" style="text;html=1;strokeColor=none;fillColor=none;align=center;verticalAlign=middle;whiteSpace=wrap;rounded=0;" parent="1" vertex="1">
          <mxGeometry x="700" y="575" width="60" height="30" as="geometry" />
        </mxCell>
        <mxCell id="uDeZrSG333JNhY7ju4cX-117" value="&amp;lt;acciones&amp;gt;" style="text;html=1;strokeColor=none;fillColor=none;align=center;verticalAlign=middle;whiteSpace=wrap;rounded=0;" parent="1" vertex="1">
          <mxGeometry x="580" y="655" width="60" height="30" as="geometry" />
        </mxCell>
      </root>
    </mxGraphModel>
  </diagram>
</mxfile>
